<svg width="134" height="40" viewBox="0 0 134 40" fill="none" xmlns="http://www.w3.org/2000/svg">
<path d="M25.0925 1.05386L21.1595 0L17.8451 12.3696L14.8528 1.20224L10.9197 2.2561L14.1527 14.3216L6.10008 6.26898L3.22089 9.14818L12.0536 17.981L1.05386 15.0336L0 18.9666L12.0186 22.187C11.881 21.5935 11.8082 20.9751 11.8082 20.3397C11.8082 15.8421 15.4542 12.1961 19.9518 12.1961C24.4494 12.1961 28.0954 15.8421 28.0954 20.3397C28.0954 20.971 28.0235 21.5856 27.8876 22.1756L38.8103 25.1023L39.8642 21.1693L27.7977 17.9361L38.7982 14.9885L37.7443 11.0555L25.6784 14.2885L33.731 6.23592L30.8518 3.35673L22.1416 12.067L25.0925 1.05386Z" fill="#F97316"/>
<path d="M27.8769 22.2214C27.5397 23.647 26.8278 24.9277 25.851 25.9538L33.764 33.8669L36.6432 30.9877L27.8769 22.2214Z" fill="#F97316"/>
<path d="M25.771 26.0366C24.7824 27.0463 23.5331 27.7998 22.1321 28.1881L25.0115 38.9341L28.9445 37.8802L25.771 26.0366Z" fill="#F97316"/>
<path d="M21.9852 28.2274C21.3352 28.3945 20.6539 28.4833 19.9518 28.4833C19.1996 28.4833 18.4712 28.3813 17.7797 28.1904L14.8977 38.9462L18.8307 40L21.9852 28.2274Z" fill="#F97316"/>
<path d="M17.6407 28.1506C16.2611 27.743 15.034 26.9799 14.0656 25.9673L6.13312 33.8998L9.01231 36.779L17.6407 28.1506Z" fill="#F97316"/>
<path d="M13.9994 25.8974C13.0476 24.8784 12.3543 23.6148 12.0243 22.2112L1.06592 25.1475L2.11977 29.0805L13.9994 25.8974Z" fill="#F97316"/>
<path d="M69.078 12.49L65.272 28H59.97L57.836 18.496L55.658 28H50.356L46.594 12.49H51.258L53.062 23.094L55.504 12.49H60.234L62.61 23.006L64.414 12.49H69.078ZM73.0858 14.514C72.3231 14.514 71.7071 14.3087 71.2378 13.898C70.7831 13.4727 70.5558 12.9447 70.5558 12.314C70.5558 11.6687 70.7831 11.1333 71.2378 10.708C71.7071 10.2827 72.3231 10.07 73.0858 10.07C73.8338 10.07 74.4351 10.2827 74.8898 10.708C75.3591 11.1333 75.5938 11.6687 75.5938 12.314C75.5938 12.9447 75.3591 13.4727 74.8898 13.898C74.4351 14.3087 73.8338 14.514 73.0858 14.514ZM75.2198 15.658V28H70.9078V15.658H75.2198ZM82.9334 28.154C81.8187 28.154 80.8214 27.9707 79.9414 27.604C79.076 27.2227 78.3867 26.7093 77.8734 26.064C77.3747 25.404 77.096 24.6633 77.0374 23.842H81.2174C81.276 24.238 81.4594 24.546 81.7674 24.766C82.0754 24.986 82.4567 25.096 82.9114 25.096C83.2634 25.096 83.542 25.0227 83.7474 24.876C83.9527 24.7293 84.0554 24.5387 84.0554 24.304C84.0554 23.996 83.8867 23.7687 83.5494 23.622C83.212 23.4753 82.6547 23.314 81.8774 23.138C80.9974 22.962 80.264 22.764 79.6774 22.544C79.0907 22.324 78.5774 21.9647 78.1374 21.466C77.712 20.9673 77.4994 20.2927 77.4994 19.442C77.4994 18.7087 77.6974 18.0487 78.0934 17.462C78.4894 16.8607 79.0687 16.384 79.8314 16.032C80.6087 15.68 81.54 15.504 82.6254 15.504C84.2387 15.504 85.5074 15.9 86.4314 16.692C87.3554 17.484 87.8907 18.5253 88.0374 19.816H84.1434C84.07 19.42 83.894 19.1193 83.6154 18.914C83.3514 18.694 82.992 18.584 82.5374 18.584C82.1854 18.584 81.914 18.65 81.7234 18.782C81.5474 18.914 81.4594 19.0973 81.4594 19.332C81.4594 19.6253 81.628 19.8527 81.9654 20.014C82.3027 20.1607 82.8454 20.3147 83.5934 20.476C84.488 20.6667 85.2287 20.8793 85.8154 21.114C86.4167 21.3487 86.9374 21.73 87.3774 22.258C87.832 22.7713 88.0594 23.4753 88.0594 24.37C88.0594 25.0887 87.8467 25.734 87.4214 26.306C87.0107 26.878 86.4167 27.3327 85.6394 27.67C84.8767 27.9927 83.9747 28.154 82.9334 28.154ZM89.4753 21.818C89.4753 20.542 89.7026 19.4273 90.1573 18.474C90.6266 17.5207 91.2573 16.7873 92.0493 16.274C92.8559 15.7607 93.7506 15.504 94.7333 15.504C95.5839 15.504 96.3173 15.6727 96.9333 16.01C97.5493 16.3473 98.0259 16.802 98.3633 17.374V15.658H102.675V28H98.3633V26.284C98.0259 26.856 97.5419 27.3107 96.9113 27.648C96.2953 27.9853 95.5693 28.154 94.7333 28.154C93.7506 28.154 92.8559 27.8973 92.0493 27.384C91.2573 26.8707 90.6266 26.1373 90.1573 25.184C89.7026 24.216 89.4753 23.094 89.4753 21.818ZM98.3633 21.818C98.3633 21.026 98.1433 20.4027 97.7033 19.948C97.2779 19.4933 96.7499 19.266 96.1193 19.266C95.4739 19.266 94.9386 19.4933 94.5133 19.948C94.0879 20.388 93.8753 21.0113 93.8753 21.818C93.8753 22.61 94.0879 23.2407 94.5133 23.71C94.9386 24.1647 95.4739 24.392 96.1193 24.392C96.7499 24.392 97.2779 24.1647 97.7033 23.71C98.1433 23.2553 98.3633 22.6247 98.3633 21.818ZM112.414 24.326V28H110.544C107.391 28 105.814 26.438 105.814 23.314V19.244H104.296V15.658H105.814V12.666H110.148V15.658H112.392V19.244H110.148V23.38C110.148 23.7173 110.222 23.9593 110.368 24.106C110.53 24.2527 110.794 24.326 111.16 24.326H112.414ZM116.57 14.514C115.807 14.514 115.191 14.3087 114.722 13.898C114.267 13.4727 114.04 12.9447 114.04 12.314C114.04 11.6687 114.267 11.1333 114.722 10.708C115.191 10.2827 115.807 10.07 116.57 10.07C117.318 10.07 117.919 10.2827 118.374 10.708C118.843 11.1333 119.078 11.6687 119.078 12.314C119.078 12.9447 118.843 13.4727 118.374 13.898C117.919 14.3087 117.318 14.514 116.57 14.514ZM118.704 15.658V28H114.392V15.658H118.704ZM128.86 28L126.638 24.898L124.878 28H120.148L124.262 21.598L119.972 15.658H124.812L127.034 18.76L128.816 15.658H133.546L129.344 21.95L133.7 28H128.86Z" fill="#13181D"/>
</svg>
